<svg width="28" height="14" viewBox="0 0 28 14" fill="none" xmlns="http://www.w3.org/2000/svg">
<path d="M2.82311 3.06078C2.38253 3.06078 2.0293 2.94304 1.76343 2.70755C1.49756 2.47207 1.36462 2.17581 1.36462 1.81878C1.36462 1.45416 1.49756 1.15411 1.76343 0.918622C2.0293 0.67554 2.38253 0.553999 2.82311 0.553999C3.2561 0.553999 3.60553 0.67554 3.8714 0.918622C4.13727 1.15411 4.27021 1.45416 4.27021 1.81878C4.27021 2.17581 4.13727 2.47207 3.8714 2.70755C3.60553 2.94304 3.2561 3.06078 2.82311 3.06078ZM4.09929 10.4444C4.09929 12.1991 3.21812 13.0765 1.45578 13.0765H0.612589V10.923H1.10255C1.26967 10.923 1.38741 10.8888 1.45578 10.8204C1.53174 10.752 1.56972 10.6419 1.56972 10.49V3.57353H4.09929V10.4444ZM12.022 3.57353V10H9.49243V9.02008C9.29492 9.32393 9.02905 9.57081 8.69482 9.76072C8.36817 9.95062 7.97696 10.0456 7.52119 10.0456C6.78435 10.0456 6.20703 9.7987 5.78923 9.30494C5.37903 8.81118 5.17393 8.1427 5.17393 7.29951V3.57353H7.6921V6.98047C7.6921 7.28432 7.77186 7.5274 7.93139 7.70972C8.09851 7.88443 8.3188 7.97179 8.59227 7.97179C8.87333 7.97179 9.09362 7.88443 9.25314 7.70972C9.41267 7.5274 9.49243 7.28432 9.49243 6.98047V3.57353H12.022ZM12.8226 6.78676C12.8226 6.11069 12.9366 5.52578 13.1645 5.03202C13.4 4.53066 13.719 4.15085 14.1216 3.89257C14.5242 3.6267 14.9762 3.49377 15.4775 3.49377C15.8953 3.49377 16.2562 3.58113 16.56 3.75584C16.8639 3.92296 17.0956 4.15465 17.2551 4.4509V3.57353H19.7732V10H17.2551V9.12263C17.0956 9.41888 16.8639 9.65437 16.56 9.82908C16.2562 9.9962 15.8953 10.0798 15.4775 10.0798C14.9762 10.0798 14.5242 9.95062 14.1216 9.69235C13.719 9.42648 13.4 9.04666 13.1645 8.5529C12.9366 8.05155 12.8226 7.46284 12.8226 6.78676ZM17.2551 6.78676C17.2551 6.44493 17.1677 6.17906 16.993 5.98915C16.8183 5.79925 16.5942 5.70429 16.3207 5.70429C16.0473 5.70429 15.8232 5.79925 15.6485 5.98915C15.4737 6.17906 15.3864 6.44493 15.3864 6.78676C15.3864 7.1286 15.4737 7.39447 15.6485 7.58438C15.8232 7.77428 16.0473 7.86924 16.3207 7.86924C16.5942 7.86924 16.8183 7.77428 16.993 7.58438C17.1677 7.39447 17.2551 7.1286 17.2551 6.78676ZM25.4099 3.52795C26.1468 3.52795 26.7203 3.77483 27.1305 4.26859C27.5483 4.76235 27.7572 5.43082 27.7572 6.27401V10H25.239V6.59306C25.239 6.28921 25.1555 6.04992 24.9883 5.87521C24.8288 5.6929 24.6123 5.60174 24.3389 5.60174C24.0578 5.60174 23.8375 5.6929 23.678 5.87521C23.5185 6.04992 23.4387 6.28921 23.4387 6.59306V10H20.9091V3.57353H23.4387V4.55345C23.6362 4.2496 23.8983 4.00272 24.2249 3.81281C24.5592 3.62291 24.9542 3.52795 25.4099 3.52795Z" fill="#040404"/>
</svg>
