<svg width="52" height="76" viewBox="0 0 52 76" fill="none" xmlns="http://www.w3.org/2000/svg">
<path d="M42.8811 25.6754C47.4661 23.6991 50.6733 19.1367 50.6733 13.8402V13.4675C50.6733 6.3641 44.8913 0.570709 37.7765 0.570709H13.1009C5.99753 0.570709 0.204071 6.3528 0.204071 13.4675V13.8402C0.204071 19.1706 3.45655 23.7556 8.07546 25.7093C3.45655 27.6743 0.204071 32.2594 0.204071 37.5785V37.9511C0.204071 43.338 3.5243 47.9569 8.21097 49.8768C3.5243 51.8983 0.237984 56.5623 0.237984 61.9831C0.237984 69.2446 6.1443 75.1622 13.4171 75.1622C20.6899 75.1622 26.5963 69.2559 26.5963 61.9831V50.8367H26.6415L26.5963 45.1901C28.9679 48.9055 33.1238 51.3788 37.8556 51.3788C45.2188 51.3788 51.2042 45.3934 51.2042 38.0302C51.2042 32.4401 47.7484 27.6518 42.8698 25.6642L42.8811 25.6754ZM26.6076 26.7257H30.7974C29.1147 27.7873 27.6804 29.2102 26.6076 30.8816V26.7257ZM48.6406 13.4675V13.8402C48.6406 19.8256 43.7732 24.6929 37.7878 24.6929H26.6076V2.61477H37.7878C43.7732 2.61477 48.6406 7.48212 48.6406 13.4675ZM2.24814 13.8402V13.4675C2.24814 7.48212 7.11555 2.61477 13.1009 2.61477H24.5635V24.6929H13.1009C7.11555 24.6929 2.24814 19.8256 2.24814 13.8402ZM13.1009 48.8152C7.11555 48.8152 2.24814 43.9478 2.24814 37.9624V37.5898C2.24814 31.6044 7.11555 26.737 13.1009 26.737H24.428L24.507 37.9511C24.507 37.9511 24.507 38.0189 24.507 38.0528C24.507 38.1093 24.507 38.1657 24.507 38.2335L24.5522 45.0884V48.8265H13.0896L13.1009 48.8152ZM24.5635 61.9944C24.5635 68.1378 19.5606 73.1407 13.4171 73.1407C7.27362 73.1407 2.27074 68.1378 2.27074 61.9944C2.27074 55.8509 7.27362 50.848 13.4171 50.848H24.5635V61.9944ZM37.8556 49.3686C31.9944 49.3686 27.1497 44.8852 26.5963 39.1595V36.9461C27.1497 31.2204 31.9944 26.737 37.8556 26.737C44.0894 26.737 49.1714 31.8077 49.1714 38.0528C49.1714 44.2979 44.0894 49.3686 37.8556 49.3686Z" fill="#040404"/>
</svg>
