<svg width="219" height="92" viewBox="0 0 219 92" fill="none" xmlns="http://www.w3.org/2000/svg">
<path d="M131.25 31.31C126.463 31.31 122.899 33.6578 122.899 39.3108C122.899 43.5734 125.247 46.529 130.991 46.529C135.862 46.529 139.159 43.6645 139.159 39.1361C139.159 34.0073 136.204 31.31 131.242 31.31H131.25ZM121.684 71.2305C120.552 72.621 119.427 74.095 119.427 75.835C119.427 79.3149 123.857 80.3559 129.95 80.3559C134.996 80.3559 141.864 80.0064 141.864 75.3107C141.864 72.5222 138.559 72.3475 134.38 72.0891L121.684 71.2229V71.2305ZM147.426 31.5683C148.991 33.5666 150.648 36.3552 150.648 40.3518C150.648 50.0014 143.08 55.6544 132.123 55.6544C129.335 55.6544 126.812 55.3049 125.255 54.8718L122.383 59.4762L130.908 60.0005C145.952 60.9579 154.819 61.3986 154.819 72.9553C154.819 82.962 146.036 88.6074 130.908 88.6074C115.78 88.6074 109.17 84.6032 109.17 77.7345C109.17 73.8215 110.909 71.7396 113.956 68.8599C111.084 67.6442 110.127 65.4712 110.127 63.1233C110.127 61.2086 111.084 59.4686 112.649 57.8199C114.215 56.1711 115.955 54.5147 118.044 52.5999C113.782 50.5105 110.568 45.9896 110.568 39.554C110.568 29.5548 117.178 22.6861 130.482 22.6861C134.221 22.6861 136.485 23.028 138.483 23.5523H155.442V30.9453L147.441 31.5531L147.426 31.5683Z" fill="black"/>
<path d="M170.722 15.7719C165.76 15.7719 162.896 12.8998 162.896 7.93821C162.896 2.97663 165.768 0.286896 170.722 0.286896C175.676 0.286896 178.639 2.98423 178.639 7.93821C178.639 12.8922 175.767 15.7719 170.722 15.7719ZM159.499 68.0318V61.1631L163.937 60.5552C165.152 60.3805 165.327 60.1221 165.327 58.8152V33.2476C165.327 32.2902 165.069 31.6823 164.195 31.424L159.499 29.7676L160.457 22.7242H178.464V58.8152C178.464 60.2057 178.548 60.3805 179.855 60.5552L184.292 61.1631V68.0318H159.507H159.499Z" fill="black"/>
<path d="M218.681 64.6658C214.943 66.4893 209.465 68.1381 204.503 68.1381C194.155 68.1381 190.242 63.9667 190.242 54.1348V31.348C190.242 30.8237 190.242 30.4742 189.542 30.4742H183.456V22.7317C191.115 21.8579 194.155 18.0361 195.112 8.55362H203.379V20.9082C203.379 21.516 203.379 21.7744 204.078 21.7744H216.341V30.4666H203.386V51.2475C203.386 56.3762 204.602 58.3745 209.298 58.3745C211.737 58.3745 214.252 57.7667 216.341 56.9841L218.689 64.6278L218.681 64.6658Z" fill="black"/>
<path d="M89.8247 41.841L50.0637 2.07999C47.7767 -0.207043 44.0612 -0.207043 41.7742 2.07999L33.515 10.3392L43.9928 20.817C46.4242 19.9964 49.2203 20.5434 51.1578 22.4886C53.1106 24.4413 53.6576 27.2526 52.8142 29.6992L62.9121 39.7971C65.3511 38.9537 68.17 39.5008 70.1227 41.4535C72.8505 44.1812 72.8505 48.5957 70.1227 51.3234C67.395 54.0512 62.9805 54.0512 60.2528 51.3234C58.2013 49.2719 57.6922 46.2631 58.7332 43.7329L49.3191 34.3188V59.0963C49.9801 59.423 50.6108 59.8637 51.1654 60.4184C53.8932 63.1461 53.8932 67.5606 51.1654 70.2883C48.4377 73.0161 44.0232 73.0161 41.2955 70.2883C38.5677 67.5606 38.5677 63.1461 41.2955 60.4184C41.9717 59.7421 42.7467 59.2331 43.5825 58.8988V33.8933C42.7543 33.5514 41.9717 33.0499 41.2955 32.3737C39.2288 30.307 38.7349 27.283 39.791 24.7452L29.4652 14.4193L2.18793 41.651C-0.0991026 43.9457 -0.0991026 47.6535 2.18793 49.9482L41.9489 89.7092C43.0886 90.8489 44.5779 91.4187 46.0747 91.4263H46.1203C47.6095 91.4263 49.1063 90.8489 50.2461 89.7092L89.8247 50.1305C92.1117 47.8359 92.1117 44.128 89.8247 41.8334V41.841Z" fill="black"/>
</svg>
