<svg width="34" height="38" viewBox="0 0 34 38" fill="none" xmlns="http://www.w3.org/2000/svg">
<path fill-rule="evenodd" clip-rule="evenodd" d="M13.6198 33.7242C13.6294 33.9514 13.6049 34.1732 13.557 34.3976C13.473 34.792 13.3106 35.2094 13.0807 35.595C12.4273 36.6911 11.3173 37.4226 9.88817 37.4226C6.52158 37.4226 5.20028 35.771 3.54592 31.6351C2.42547 28.834 1.89689 28.1732 0.638794 28.1732L0.638794 24.4735C4.00539 24.4735 5.32668 26.1251 6.98105 30.261C8.1015 33.0621 8.63007 33.7229 9.88817 33.7229C9.88817 33.1861 9.88082 32.7106 9.86535 32.0667C9.82909 30.5576 9.82492 30.2495 9.89076 29.8461C9.91707 28.9654 10.1444 28.3405 10.6004 27.7202C6.47181 26.8215 3.68724 24.9654 2.08905 21.9548L1.49036 20.5469C0.90711 18.8707 0.638794 16.9715 0.638794 14.7781C0.638794 12.252 1.40898 9.99333 2.84758 8.1053C2.39882 6.31065 2.46027 4.11799 3.45118 1.64171L3.77496 0.832563L4.60505 0.567038C4.71619 0.531488 4.8513 0.49938 5.01003 0.474467C6.6264 0.220776 8.92643 0.826057 11.9333 2.75208C13.7059 2.34118 15.5726 2.13372 17.4519 2.13372C19.1313 2.13372 20.8014 2.30303 22.3963 2.63683C25.3218 0.804833 27.5586 0.230248 29.1315 0.474792C29.2884 0.499187 29.4221 0.53068 29.5324 0.565633L30.3676 0.830508L30.6918 1.64459C31.5586 3.82141 31.7074 5.82754 31.392 7.58293C33.0458 9.56732 33.9366 12.0069 33.9366 14.7781C33.9366 17.1144 33.7692 18.8711 33.288 20.5802L32.7802 21.9738C31.4508 24.9812 28.5191 26.8581 23.9982 27.752C24.4681 28.4027 24.6872 29.0632 24.6872 30.0231V31.873C24.6872 32.7694 24.6872 32.797 24.6851 33.7229C24.6893 33.7893 24.6949 33.8219 24.7009 33.8422C24.6995 33.8427 24.6872 37.4226 24.6872 37.4226C23.1115 37.4226 21.9399 36.6542 21.3636 35.442C21.0649 34.8135 20.9756 34.2134 20.9874 33.6966V30.0231C20.9874 29.868 20.982 29.859 20.6043 29.4813C19.5946 28.4716 19.1376 27.7098 19.1376 26.3234V24.65L20.8026 24.4827C25.7589 23.985 28.4545 22.6086 29.3483 20.5978L29.7659 19.456C30.0983 18.2621 30.2368 16.8082 30.2368 14.7781C30.2368 12.621 29.4837 10.839 28.0595 9.41536L27.2766 8.63283L27.5962 7.57307C27.88 6.63159 27.9475 5.51754 27.6472 4.24688C27.5973 4.25952 27.5454 4.2733 27.4916 4.28829C26.5011 4.56405 25.2644 5.15576 23.7742 6.15187L23.0945 6.6062L22.3009 6.40943C20.7662 6.02886 19.1169 5.83347 17.4519 5.83347C15.6003 5.83347 13.7701 6.06905 12.0793 6.53L11.2541 6.75495L10.5482 6.27205C9.00694 5.21765 7.7265 4.59061 6.69977 4.29769C6.62644 4.27677 6.55662 4.25806 6.49025 4.24138C6.13204 5.712 6.27372 6.92024 6.63652 7.82687L7.07152 8.91396L6.27515 9.77231C5.00616 11.1401 4.33855 12.8045 4.33855 14.7781C4.33855 16.585 4.55007 18.0822 4.93769 19.21L5.42177 20.3559C6.63191 22.6267 9.20225 23.9928 13.7851 24.484L15.4378 24.6612V26.3234C15.4378 27.7098 14.9807 28.4716 13.971 29.4813C13.5933 29.859 13.5879 29.868 13.5879 30.0231L13.556 30.3651C13.5349 30.4772 13.5349 30.7669 13.564 31.9779C13.5774 32.5348 13.585 32.9757 13.5872 33.4363C13.6093 33.5317 13.6127 33.5932 13.6198 33.7242Z" fill="#040404"/>
</svg>
