<svg width="85" height="82" viewBox="0 0 85 82" fill="none" xmlns="http://www.w3.org/2000/svg">
<path d="M29.7127 40.8665H39.1199L34.3655 25.7224L29.7127 40.8665Z" fill="#040404"/>
<path d="M70.142 0.00769043H14.4778C6.48226 0.00769043 0 6.48997 0 14.4856V67.2473C0 75.2429 6.48226 81.7252 14.4778 81.7252H70.142C78.1376 81.7252 84.6198 75.2429 84.6198 67.2473V14.4856C84.6198 6.48997 78.1376 0.00769043 70.142 0.00769043ZM44.2467 57.1625L41.4347 48.2409H27.4537L24.7208 57.1625H17.1205L28.8428 22.4811C29.1025 21.7019 29.2155 20.8775 29.159 20.0644L29.1138 19.2965H39.2212L52.7166 57.1738H44.2354L44.2467 57.1625ZM64.4728 57.1625H56.2965V28.3875H64.4728V57.1625ZM60.3847 25.2141C57.8437 25.2141 55.7883 23.1587 55.7883 20.6178C55.7883 18.0768 57.8437 16.0214 60.3847 16.0214C62.9257 16.0214 64.981 18.0768 64.981 20.6178C64.981 23.1587 62.9257 25.2141 60.3847 25.2141Z" fill="#040404"/>
</svg>
