<svg width="156" height="46" viewBox="0 0 156 46" fill="none" xmlns="http://www.w3.org/2000/svg">
<path d="M3.06986 7.95564C2.36117 7.95564 1.76151 7.71032 1.27088 7.21969C0.780246 6.72906 0.53493 6.12939 0.53493 5.4207C0.53493 4.71201 0.780246 4.11235 1.27088 3.62172C1.76151 3.13109 2.36117 2.88577 3.06986 2.88577C3.75129 2.88577 4.3237 3.13109 4.78707 3.62172C5.2777 4.11235 5.52302 4.71201 5.52302 5.4207C5.52302 6.12939 5.2777 6.72906 4.78707 7.21969C4.3237 7.71032 3.75129 7.95564 3.06986 7.95564ZM4.86884 11.5945V34H1.14822V11.5945H4.86884ZM38.1539 11.1856C39.8983 11.1856 41.452 11.5536 42.8149 12.2895C44.1777 12.9982 45.2544 14.0749 46.0448 15.5195C46.8353 16.9642 47.2305 18.7223 47.2305 20.7938V34H43.5508V21.3253C43.5508 19.0902 42.992 17.3867 41.8745 16.2146C40.7842 15.0153 39.2987 14.4156 37.4179 14.4156C35.4826 14.4156 33.9426 15.0425 32.7978 16.2964C31.653 17.523 31.0806 19.3083 31.0806 21.6524V34H27.4008V21.3253C27.4008 19.0902 26.8421 17.3867 25.7245 16.2146C24.6342 15.0153 23.1487 14.4156 21.268 14.4156C19.3327 14.4156 17.7926 15.0425 16.6478 16.2964C15.503 17.523 14.9306 19.3083 14.9306 21.6524V34H11.21V11.5945H14.9306V14.8245C15.6666 13.6524 16.6478 12.7529 17.8744 12.126C19.1283 11.4991 20.5047 11.1856 22.0039 11.1856C23.8847 11.1856 25.5473 11.6081 26.992 12.4531C28.4366 13.2981 29.5133 14.5383 30.222 16.1737C30.8489 14.5928 31.8847 13.3662 33.3293 12.494C34.774 11.6217 36.3821 11.1856 38.1539 11.1856ZM53.9061 5.50248H58.0356L54.1106 14.7836H51.4939L53.9061 5.50248ZM65.6711 9.10044C64.0901 9.10044 62.8227 8.67795 61.8687 7.83298C60.9147 6.988 60.4377 5.92497 60.4377 4.64387C60.4377 3.33552 60.9147 2.25886 61.8687 1.41388C62.8227 0.541645 64.0901 0.105528 65.6711 0.105528C67.2247 0.105528 68.4786 0.541645 69.4326 1.41388C70.3866 2.25886 70.8636 3.33552 70.8636 4.64387C70.8636 5.92497 70.3866 6.988 69.4326 7.83298C68.4786 8.67795 67.2247 9.10044 65.6711 9.10044ZM70.2503 35.5946C70.2503 41.891 67.0885 45.0392 60.7648 45.0392H57.7392V37.3118H59.4973C60.097 37.3118 60.5194 37.1891 60.7648 36.9438C61.0373 36.6985 61.1736 36.3032 61.1736 35.7581V10.9403H70.2503V35.5946ZM98.6788 10.9403V34H89.6021V30.4838C88.8934 31.5741 87.9394 32.46 86.7401 33.1414C85.5681 33.8228 84.1643 34.1635 82.5289 34.1635C79.8849 34.1635 77.8134 33.2777 76.3142 31.506C74.8423 29.7342 74.1064 27.3356 74.1064 24.31V10.9403H83.1422V23.1652C83.1422 24.2555 83.4284 25.1277 84.0008 25.7819C84.6004 26.4088 85.3909 26.7223 86.3721 26.7223C87.3807 26.7223 88.1711 26.4088 88.7435 25.7819C89.3159 25.1277 89.6021 24.2555 89.6021 23.1652V10.9403H98.6788ZM101.552 22.4702C101.552 20.0443 101.961 17.9454 102.778 16.1737C103.623 14.3747 104.768 13.0119 106.213 12.0851C107.657 11.1311 109.279 10.6541 111.078 10.6541C112.577 10.6541 113.872 10.9676 114.962 11.5945C116.053 12.1941 116.884 13.0255 117.456 14.0885V10.9403H126.492V34H117.456V30.8518C116.884 31.9148 116.053 32.7598 114.962 33.3867C113.872 33.9864 112.577 34.2862 111.078 34.2862C109.279 34.2862 107.657 33.8228 106.213 32.8961C104.768 31.9421 103.623 30.5792 102.778 28.8075C101.961 27.0085 101.552 24.8961 101.552 22.4702ZM117.456 22.4702C117.456 21.2436 117.143 20.2896 116.516 19.6081C115.889 18.9267 115.085 18.586 114.104 18.586C113.122 18.586 112.318 18.9267 111.691 19.6081C111.065 20.2896 110.751 21.2436 110.751 22.4702C110.751 23.6967 111.065 24.6507 111.691 25.3322C112.318 26.0136 113.122 26.3543 114.104 26.3543C115.085 26.3543 115.889 26.0136 116.516 25.3322C117.143 24.6507 117.456 23.6967 117.456 22.4702ZM146.718 10.7768C149.362 10.7768 151.42 11.6626 152.892 13.4344C154.391 15.2061 155.14 17.6047 155.14 20.6303V34H146.105V21.7751C146.105 20.6848 145.805 19.8262 145.205 19.1993C144.633 18.5451 143.856 18.218 142.875 18.218C141.866 18.218 141.076 18.5451 140.503 19.1993C139.931 19.8262 139.645 20.6848 139.645 21.7751V34H130.568V10.9403H139.645V14.4565C140.353 13.3662 141.294 12.4803 142.466 11.7989C143.665 11.1175 145.082 10.7768 146.718 10.7768Z" fill="#040404"/>
</svg>
