<svg width="86" height="82" viewBox="0 0 86 82" fill="none" xmlns="http://www.w3.org/2000/svg">
<path d="M44.9503 44.2093V46.1404C44.9503 49.8558 47.9657 52.8711 51.6811 52.8711H55.1255V37.4898H51.6811C47.9657 37.4898 44.9503 40.5051 44.9503 44.2205V44.2093Z" fill="#040404"/>
<path d="M70.744 0.00769043H15.0798C7.08427 0.00769043 0.602036 6.48997 0.602036 14.4856V67.2473C0.602036 75.2429 7.08427 81.7252 15.0798 81.7252H70.744C78.7396 81.7252 85.2219 75.2429 85.2219 67.2473V14.4856C85.2219 6.48997 78.7396 0.00769043 70.744 0.00769043ZM31.5453 58.6645H23.3691V23.0571H31.5453V58.6645ZM61.8224 57.1625L61.5965 57.2416C59.0555 58.1902 56.413 58.8452 53.7252 59.1953L53.4767 59.2292C52.5732 59.3534 51.6698 59.4099 50.7551 59.4099H50.1904C42.9854 59.4099 37.1468 53.5713 37.1468 46.3662V44.8078C37.1468 37.1058 43.3919 30.872 51.0825 30.872H54.5722V20.6065H61.8224V57.1512V57.1625Z" fill="#040404"/>
</svg>
