<svg width="89" height="86" viewBox="0 0 89 86" fill="none" xmlns="http://www.w3.org/2000/svg">
<path d="M88.3662 85.7329H0.997391V0H88.3662V85.7329ZM42.9122 78.5928C49.7745 78.5928 52.8713 73.356 52.8713 66.9978V44.9704H45.8547V66.3805C45.8547 70.7839 44.4966 72.1523 41.9862 72.1523C40.4018 72.1523 38.8071 71.1235 37.6651 68.8497L32.8913 72.6255C35.0416 76.6277 38.1693 78.6031 42.9122 78.6031V78.5928ZM69.5282 78.5928C76.9255 78.5928 81.226 73.8396 81.226 68.3559C81.226 63.685 78.8597 60.9997 75.0633 59.3741L71.1126 57.6663C68.4067 56.514 66.3696 55.7835 66.3696 53.7567C66.3696 51.8739 67.9129 50.7936 70.3306 50.7936C72.7484 50.7936 74.7238 51.7093 76.7712 53.376L80.3104 48.6742C77.6354 45.8449 73.9008 44.3428 70.3204 44.3428C63.8593 44.3428 59.2604 48.7154 59.2604 54.1888C59.2604 58.9832 62.3057 61.7919 65.526 63.1911L69.559 65.0225C72.2751 66.2056 74.0345 66.8743 74.0345 68.9526C74.0345 70.9074 72.6044 72.142 69.6722 72.142C67.1207 72.142 64.2502 70.7325 62.0485 68.6954L58.0155 73.819C61.1843 76.9672 65.4746 78.5928 69.5179 78.5928H69.5282Z" fill="#040404"/>
</svg>
