<svg width="38" height="38" viewBox="0 0 38 38" fill="none" xmlns="http://www.w3.org/2000/svg">
<path fill-rule="evenodd" clip-rule="evenodd" d="M4.54204 0.419678H34.14C36.1834 0.419678 37.8398 2.07611 37.8398 4.11943V33.7174C37.8398 35.7608 36.1834 37.4172 34.14 37.4172H4.54204C2.49872 37.4172 0.842285 35.7608 0.842285 33.7174V4.11943C0.842285 2.07611 2.49872 0.419678 4.54204 0.419678ZM4.54226 4.11943V33.7174H34.1403V4.11943H4.54226ZM21.1911 13.3688C20.2334 13.3688 19.2215 13.6616 18.3278 14.2052L17.4914 13.3688H15.6415V26.3179H19.3413V18.9184C19.3413 17.8534 20.44 17.0686 21.1911 17.0686H23.041C23.7922 17.0686 24.8909 17.8534 24.8909 18.9184V26.3179H28.5906V18.9184C28.5906 15.4909 25.6197 13.3688 23.041 13.3688H21.1911ZM11.9418 11.5189C12.9634 11.5189 13.7916 10.6907 13.7916 9.66905C13.7916 8.6474 12.9634 7.81918 11.9418 7.81918C10.9201 7.81918 10.0919 8.6474 10.0919 9.66905C10.0919 10.6907 10.9201 11.5189 11.9418 11.5189ZM10.0919 13.3688V26.3179H13.7916V13.3688H10.0919Z" fill="#040404"/>
</svg>
