<svg width="351" height="100" viewBox="0 0 351 100" fill="none" xmlns="http://www.w3.org/2000/svg">
<path d="M249.292 74.0328L243.694 70.816V64.3746L249.292 61.1578L254.89 64.3746V70.816L249.292 74.0328ZM128.39 82.9581V52.2248L101.677 36.8582L74.9649 52.2248V82.9581L101.677 98.3247L128.39 82.9581ZM185.407 73.2382V61.937L175.589 56.2902L165.771 61.937V73.2382L175.589 78.885L185.407 73.2382ZM202.302 8.87128V82.9503L175.581 98.3169L148.869 82.9503V52.2171L175.581 36.8505L185.407 42.4973V0L202.302 8.879V8.87128ZM276.004 61.775V52.2248L259.11 42.505L249.284 36.8582L222.572 52.2248V82.9581L249.284 98.3247L265.985 88.7205L239.474 73.2382V61.937L249.292 56.2902L259.118 61.937V70.654L276.012 61.775H276.004ZM27.5408 36.8582L0.82843 52.2248V90.9113L8.04464 87.116L17.723 82.0323V61.9524L27.5485 56.3056L37.3663 61.9524V82.0323L47.0447 87.116L54.2686 90.9113V52.2248L27.5563 36.8582H27.5408ZM339.44 76.779C340.648 75.6296 341.291 74.0868 341.291 72.3202C341.291 65.5318 333.649 64.6755 329.081 64.1664C328.237 64.0738 327.447 63.9812 326.789 63.8732C322.801 63.2252 322.801 62.2455 322.801 60.6179C322.801 60.3941 322.801 59.8773 323.63 59.3142C324.218 58.9207 324.962 58.7047 325.775 58.7047H332.991C334.09 58.7047 334.872 58.9593 335.306 59.4684C335.979 60.2476 335.925 61.6361 335.856 62.1067L337.892 62.4461L335.856 62.0913L339.928 62.801C339.99 62.4384 340.493 59.2139 338.48 56.8225C337.621 55.7965 335.964 54.5777 332.991 54.5777H325.775C324.133 54.5777 322.592 55.0328 321.315 55.8891C319.604 57.0385 318.659 58.7125 318.659 60.6101C318.659 66.0023 322.43 67.3369 326.115 67.9386C326.874 68.062 327.718 68.1546 328.616 68.2549C334.276 68.8874 337.149 69.6897 337.149 72.3125C337.149 73.1379 336.847 73.5391 336.583 73.7859C334.934 75.3519 330.374 75.1359 328.872 75.0588C328.531 75.0433 328.26 75.0279 328.082 75.0279C321.981 75.0279 321.981 71.9037 321.981 70.8777H317.846C317.846 76.0539 321.671 79.1473 328.09 79.1473C328.221 79.1473 328.423 79.155 328.678 79.1704C329.243 79.1935 329.987 79.2321 330.838 79.2321C333.517 79.2321 337.218 78.8773 339.448 76.7636L339.44 76.779ZM322.569 99.7132L311.427 93.3027L315.879 91.1042L322.569 94.9536L346.347 81.2764V53.922L322.569 40.2448L298.791 53.922V81.2764L303.576 84.0303C305.086 84.902 306.728 85.2723 308.33 85.118C311.427 84.8172 311.691 82.8655 311.66 82.0401V81.9706V81.9244V55.2257H315.794V81.8626C315.941 84.5549 314.199 88.682 308.741 89.222C306.278 89.4611 303.778 88.9057 301.517 87.602L294.664 83.66V51.546L322.577 35.4928L350.489 51.546V83.66L322.577 99.7132H322.569Z" fill="#040404"/>
</svg>
