<svg width="85" height="82" viewBox="0 0 85 82" fill="none" xmlns="http://www.w3.org/2000/svg">
<path d="M70.443 0.00769043H14.7788C6.78326 0.00769043 0.300964 6.48999 0.300964 14.4856V67.2474C0.300964 75.2429 6.78326 81.7252 14.7788 81.7252H70.443C78.4386 81.7252 84.9209 75.2429 84.9209 67.2474V14.4856C84.9209 6.48999 78.4386 0.00769043 70.443 0.00769043ZM45.7787 33.6388C45.7787 40.5954 40.1321 46.242 33.1755 46.242H27.0207V57.953H19.3865V21.0356H33.1755C40.1321 21.0356 45.7787 26.6822 45.7787 33.6388ZM49.7877 56.9141V50.172C49.7877 50.172 53.3451 52.1032 57.6478 52.3178C61.9505 52.5436 62.47 51.132 62.47 50.5334C62.47 49.9349 63.2153 49.2686 57.7946 47.1229C52.3739 44.9772 49.7877 42.2329 49.7877 38.7433C49.7877 35.2537 50.8945 32.0013 55.5698 30.1379C60.2452 28.2858 68.6926 30.7365 68.6926 30.7365V37.4785C68.6926 37.4785 58.9014 34.147 57.501 36.4395C56.0894 38.7433 60.7647 40.1437 66.9195 43.4865C73.0743 46.818 71.5949 64.3902 49.799 56.9028L49.7877 56.9141Z" fill="#040404"/>
<path d="M32.8813 27.8229H26.7717V39.4549H32.8813C35.9305 39.4549 38.3924 36.9817 38.3924 33.9438V33.3453C38.3924 30.2961 35.9192 27.8342 32.8813 27.8342V27.8229Z" fill="#040404"/>
</svg>
