<svg width="93" height="83" viewBox="0 0 93 83" fill="none" xmlns="http://www.w3.org/2000/svg">
<path d="M92.1698 41.8655C92.1698 35.4709 84.4361 29.9316 72.432 26.6284C72.9648 24.6042 73.3958 22.627 73.6936 20.7282C75.2293 11.1796 73.6074 4.48689 69.1254 1.8977C64.6435 -0.691499 58.0459 1.23863 50.5551 7.3507C49.0664 8.56684 47.5698 9.9242 46.081 11.3993C44.5922 9.9242 43.0956 8.56684 41.6069 7.3507C34.1161 1.23863 27.5185 -0.699345 23.0366 1.8977C18.5546 4.48689 16.9248 11.1796 18.4684 20.7282C18.774 22.627 19.205 24.5963 19.7378 26.6284C7.73371 29.9316 0 35.4709 0 41.8655C0 48.26 7.73371 53.7993 19.7378 57.1025C19.205 59.1268 18.774 61.104 18.4684 63.0027C16.9327 72.5592 18.5546 79.244 23.0366 81.8332C24.3295 82.5786 25.7869 82.9395 27.3775 82.9395C32.6117 82.9395 39.2876 79.0557 46.081 72.3317C52.8744 79.0479 59.5504 82.9395 64.7845 82.9395C66.3751 82.9395 67.8325 82.5786 69.1254 81.8332C73.6074 79.244 75.2372 72.5514 73.6936 63.0027C73.388 61.104 72.957 59.1346 72.432 57.1025C84.4361 53.7993 92.1698 48.26 92.1698 41.8655ZM52.3651 9.58682C57.1292 5.70303 61.4387 3.65521 64.7062 3.65521C65.8345 3.65521 66.8374 3.89844 67.6837 4.39274C71.0138 6.31502 72.1656 12.1054 70.8571 20.2731C70.5672 22.0856 70.1519 23.9765 69.6426 25.9223C65.6151 24.9808 61.1802 24.2746 56.4475 23.8588C53.7599 20.0299 50.9469 16.5306 48.0791 13.4628C49.5051 12.0505 50.9391 10.748 52.3573 9.58682H52.3651ZM59.5582 49.6566C58.0303 52.3086 56.4631 54.7957 54.8804 57.1182C52.0752 57.33 49.1447 57.4477 46.081 57.4477C43.0173 57.4477 40.0868 57.33 37.2895 57.1182C35.7067 54.7879 34.1396 52.3086 32.6116 49.6566C31.1151 47.0674 29.7438 44.4547 28.5058 41.8655C29.7438 39.2763 31.1229 36.6635 32.6116 34.0743C34.1082 31.4773 35.6754 28.9823 37.2973 26.6127C40.1025 26.4009 43.033 26.2832 46.0888 26.2832C49.1447 26.2832 52.0752 26.4009 54.8804 26.6127C56.5023 28.9901 58.0694 31.4851 59.566 34.0743C61.0626 36.6635 62.4338 39.2763 63.6719 41.8655C62.4338 44.4547 61.0548 47.0674 59.566 49.6566H59.5582ZM65.2076 45.2393C66.6729 48.5817 67.8952 51.877 68.8668 55.0547C65.7248 55.7844 62.2771 56.365 58.5552 56.7808C59.7462 54.9605 60.9137 53.0618 62.0499 51.1003C63.1704 49.1544 64.2282 47.2008 65.2155 45.2471L65.2076 45.2393ZM46.081 68.236C43.8792 65.8744 41.6382 63.1675 39.4208 60.1389C41.5912 60.2566 43.8165 60.3272 46.081 60.3272C48.3455 60.3272 50.5708 60.2645 52.7412 60.1389C50.5238 63.1675 48.2828 65.8665 46.081 68.2282V68.236ZM33.6068 56.7808C29.8849 56.3728 26.4372 55.7844 23.2952 55.0547C24.2589 51.877 25.4891 48.5895 26.9544 45.2393C27.9417 47.1929 28.9995 49.1466 30.1199 51.0924C31.2561 53.0618 32.4236 54.9527 33.6146 56.773L33.6068 56.7808ZM26.9544 38.4917C25.4891 35.1493 24.2668 31.8539 23.2952 28.6763C26.4372 27.9466 29.8849 27.366 33.6068 26.9501C32.4079 28.7861 31.2404 30.6848 30.1199 32.6307C28.9995 34.5765 27.9417 36.5302 26.9544 38.4838V38.4917ZM46.081 15.5263C48.3376 17.9507 50.5708 20.6576 52.7256 23.592C50.563 23.4743 48.3455 23.4116 46.081 23.4116C43.8165 23.4116 41.5991 23.4743 39.4364 23.592C41.5912 20.6576 43.8244 17.9507 46.081 15.5263ZM62.0421 32.6385C60.9216 30.6848 59.7541 28.7939 58.5552 26.958C62.2771 27.366 65.7248 27.9544 68.8668 28.6841C67.9031 31.8618 66.6729 35.1493 65.2076 38.4995C64.2203 36.5458 63.1626 34.5922 62.0421 32.6464V32.6385ZM21.2971 20.2731C19.9807 12.1054 21.1404 6.31502 24.4705 4.39274C25.3246 3.89844 26.3275 3.65521 27.448 3.65521C30.7154 3.65521 35.025 5.69518 39.789 9.58682C41.2151 10.748 42.6412 12.0505 44.0673 13.4628C41.1994 16.5306 38.3865 20.0299 35.6989 23.8588C30.9662 24.2825 26.5312 24.9808 22.5038 25.9223C21.9945 23.9765 21.587 22.0856 21.2892 20.2731H21.2971ZM2.85998 41.8655C2.85998 37.2363 9.43403 32.411 20.4979 29.3824C21.7202 33.4074 23.3422 37.6129 25.3167 41.8655C23.3422 46.118 21.7202 50.3235 20.4979 54.3485C9.43403 51.32 2.85998 46.4946 2.85998 41.8655ZM24.4705 79.3382C21.1404 77.4159 19.9886 71.6255 21.2971 63.4578C21.587 61.6453 22.0023 59.7545 22.5116 57.8086C26.5391 58.7502 30.9662 59.4563 35.6989 59.8721C38.4335 63.7716 41.2621 67.2631 44.0908 70.2838C35.9339 78.3653 28.4745 81.6528 24.4705 79.3382ZM70.8571 63.4578C72.1735 71.6255 71.0138 77.4159 67.6837 79.3382C66.8453 79.8246 65.8501 80.06 64.7297 80.06C60.5141 80.06 54.5042 76.6705 48.0634 70.2838C50.892 67.2631 53.7207 63.7638 56.4553 59.8721C61.1801 59.4485 65.6151 58.7502 69.6426 57.8086C70.1519 59.7545 70.5593 61.6453 70.8571 63.4578ZM71.6563 54.3485C70.434 50.3235 68.812 46.118 66.8374 41.8655C68.812 37.6129 70.434 33.4074 71.6563 29.3824C82.728 32.4188 89.302 37.2441 89.302 41.8655C89.302 46.4868 82.728 51.32 71.6563 54.3485ZM54.1438 41.8655C54.1438 46.322 50.5316 49.939 46.081 49.939C41.6304 49.939 38.0182 46.322 38.0182 41.8655C38.0182 37.4089 41.6304 33.7919 46.081 33.7919C50.5316 33.7919 54.1438 37.4089 54.1438 41.8655Z" fill="#040404"/>
</svg>
