<svg width="86" height="86" viewBox="0 0 86 86" fill="none" xmlns="http://www.w3.org/2000/svg">
<path d="M85.2654 12.4195L45.5233 84.101C44.7163 85.5525 42.6398 85.5682 41.8171 84.1324L0.743016 12.5294C-0.158075 10.968 1.17397 9.06143 2.94481 9.36742L31.4585 14.2084L29.9775 37.8957C29.9305 38.743 30.7219 39.3942 31.5368 39.1746L39.3724 37.1032C40.1481 36.8992 40.869 37.5818 40.7123 38.3664L38.2284 50.6298C38.0795 51.3752 38.7847 52.0028 39.5056 51.7596L45.4763 49.7432C46.1893 49.5078 46.8945 50.1355 46.73 50.873L42.491 70.1115C42.3734 70.6137 42.6477 71.1158 43.1256 71.2963C43.2432 71.3434 43.3685 71.3669 43.4861 71.3669C43.8622 71.3669 44.2148 71.155 44.395 70.802L69.0927 21.6543C69.5315 20.7834 68.7401 19.7948 67.792 20.0302L58.6009 22.2899C57.8565 22.4782 57.2062 21.772 57.4334 21.0423L59.69 13.9574L82.993 9.30466C84.7717 8.95158 86.1508 10.8425 85.2732 12.4274L85.2654 12.4195Z" fill="#040404"/>
<path d="M63.482 2.03935L59.6818 13.9496L52.9119 15.2992C48.3516 16.2093 43.6659 16.2799 39.0821 15.5032L31.4502 14.2086L31.8733 7.52373C31.936 6.56652 32.6334 5.78191 33.5737 5.61714L62.1578 0.532906C63.0276 0.375985 63.7485 1.19982 63.482 2.03935Z" fill="#040404"/>
</svg>
