<svg width="86" height="82" viewBox="0 0 86 82" fill="none" xmlns="http://www.w3.org/2000/svg">
<path d="M55.5056 43.2157V45.1468C55.5056 48.8623 58.5209 51.8775 62.2363 51.8775H65.6808V36.4962H62.2363C58.5209 36.4962 55.5056 39.5115 55.5056 43.227V43.2157Z" fill="#040404"/>
<path d="M71.0451 0.00769043H15.3809C7.38535 0.00769043 0.903046 6.48997 0.903046 14.4856V67.2473C0.903046 75.2429 7.38535 81.7252 15.3809 81.7252H71.0451C79.0407 81.7252 85.5229 75.2429 85.5229 67.2473V14.4856C85.5229 6.48997 79.0407 0.00769043 71.0451 0.00769043ZM46.5163 58.4274H37.1881L30.2202 47.4278L23.2523 58.4274H13.9241L25.6916 40.2792L13.8225 21.5438H22.586L30.2202 33.3L37.8544 21.5438H46.6179L34.7488 40.2792L46.5163 58.4274ZM72.3664 56.1687L72.1405 56.2478C69.5995 57.1964 66.957 57.8514 64.2692 58.2015L64.0207 58.2354C63.1172 58.3596 62.2138 58.4161 61.2991 58.4161H60.7344C53.5294 58.4161 47.6907 52.5775 47.6907 45.3724V43.814C47.6907 36.112 53.9359 29.8782 61.6266 29.8782H65.1162V19.6127H72.3664V56.1574V56.1687Z" fill="#040404"/>
</svg>
